<svg xmlns="http://www.w3.org/2000/svg" width="1031" height="1017" viewBox="0 0 1031 1017">
<g>
<path d="M 457.14 749.02 C438.67,754.77 418.79,746.01 408.90,727.77 C405.59,721.67 405.50,721.18 405.50,710.00 C405.50,700.27 405.84,697.77 407.69,693.75 L 409.89 689.00 L 404.49 689.00 C387.26,689.00 374.28,681.42 367.28,667.25 C363.75,660.11 363.50,659.01 363.50,650.55 C363.50,642.47 363.83,640.81 366.63,635.00 C370.94,626.03 375.78,620.84 383.54,616.87 C386.08,615.57 387.81,614.96 388.72,613.75 C390.44,611.44 389.23,606.96 385.07,591.51 C384.57,589.64 384.03,587.62 383.44,585.42 C378.40,566.59 365.93,519.39 351.89,466.00 C349.07,455.27 343.93,435.92 340.46,423.00 C337.00,410.08 332.30,392.30 330.01,383.50 C325.47,366.00 323.03,360.79 317.36,356.46 C311.28,351.82 305.90,351.00 281.68,351.00 L 259.80 351.00 L 256.40 347.60 C252.57,343.77 251.87,339.06 254.56,335.22 C257.63,330.84 260.31,330.35 282.26,330.15 C305.19,329.94 313.32,330.84 321.58,334.49 C328.66,337.62 338.84,347.36 342.41,354.40 C343.91,357.37 347.37,368.28 350.11,378.65 C352.85,389.02 357.51,406.73 360.48,418.00 C363.44,429.27 367.42,444.35 369.32,451.50 C371.23,458.65 377.36,481.83 382.95,503.00 C402.67,577.63 411.16,609.44 411.50,610.00 C411.87,610.59 412.70,610.54 470.00,606.53 C554.91,600.59 566.71,599.93 564.66,601.23 C564.02,601.64 565.16,601.98 567.18,601.98 C572.37,602.01 585.29,604.85 586.09,606.14 C586.45,606.74 586.55,608.02 586.29,609.00 C586.03,609.97 586.34,611.09 586.98,611.49 C588.63,612.51 585.26,616.00 582.60,616.02 C581.09,616.03 580.87,616.26 581.82,616.87 C584.71,618.70 576.48,619.89 546.50,621.95 C529.45,623.13 495.25,625.63 470.50,627.51 C445.75,629.40 419.05,631.39 411.17,631.94 C399.33,632.76 396.13,633.33 392.70,635.22 C387.33,638.18 384.04,643.91 384.02,650.32 C384.00,655.68 385.00,658.15 388.87,662.34 C389.64,663.17 390.20,663.88 390.85,664.49 C394.65,668.01 401.73,668.01 473.23,668.00 C477.66,668.00 482.34,668.00 487.28,668.00 L 577.66 668.00 L 577.47 672.56 C577.31,676.44 577.73,677.58 580.31,680.15 C582.79,682.64 582.99,683.14 581.42,682.94 C580.36,682.80 578.83,682.98 578.00,683.34 C577.17,683.69 572.90,684.76 568.50,685.72 C561.80,687.18 554.04,687.51 520.75,687.75 C498.89,687.91 481.00,688.32 481.00,688.65 C481.00,688.99 481.85,690.67 482.88,692.38 C487.87,700.67 488.20,715.52 483.62,725.52 C478.29,737.16 469.11,745.31 457.14,749.02 ZM 734.45 473.02 C709.63,481.28 680.09,472.71 663.71,452.50 C657.76,445.15 650.56,430.55 648.97,422.59 C647.72,416.31 648.26,403.30 650.15,394.50 C651.66,387.43 657.20,376.21 661.49,371.50 C663.50,369.30 664.86,368.06 664.51,368.75 C664.11,369.54 664.54,369.93 665.69,369.81 C666.69,369.71 669.45,370.00 671.83,370.45 C675.37,371.13 676.07,371.62 675.67,373.14 C675.41,374.17 675.59,374.75 676.09,374.44 C676.59,374.14 676.93,374.70 676.84,375.69 C676.54,379.15 677.01,381.11 677.98,380.51 C678.53,380.17 677.42,382.96 675.53,386.70 C664.72,408.04 667.60,427.82 683.72,443.13 C690.11,449.19 695.50,452.14 704.46,454.46 C711.88,456.38 716.74,456.38 724.78,454.49 C733.98,452.32 738.45,449.66 746.31,441.66 C750.19,437.72 753.01,435.08 752.59,435.79 C752.02,436.75 752.45,436.93 754.27,436.47 C755.82,436.08 757.27,436.41 758.24,437.38 C759.07,438.22 760.96,439.20 762.44,439.57 C766.31,440.55 768.48,444.20 766.96,447.18 C765.11,450.79 756.67,459.09 755.99,457.98 C755.65,457.43 752.07,460.12 748.04,463.96 C742.17,469.55 739.47,471.34 734.45,473.02 ZM 495.00 435.08 C497.48,435.42 475.11,435.77 445.31,435.85 L 391.11 436.00 L 388.49 433.75 C386.75,432.25 385.69,430.12 385.33,427.39 C384.85,423.82 385.17,422.84 387.81,419.89 L 390.84 416.50 L 451.08 416.50 C498.39,416.50 511.42,416.77 511.75,417.75 C511.98,418.44 513.54,419.00 515.22,419.00 C520.57,419.00 526.13,421.28 530.12,425.12 C532.25,427.17 534.00,429.13 534.00,429.47 C534.00,431.56 525.85,432.92 508.96,433.66 C496.90,434.18 492.06,434.67 495.00,435.08 ZM 491.69 383.05 C487.95,385.33 487.50,385.36 483.33,383.54 C476.99,380.79 476.94,380.49 476.97,346.62 C476.98,329.22 477.44,313.98 478.03,311.36 C480.45,300.59 489.27,287.49 498.82,280.49 C505.01,275.96 514.61,272.16 521.73,271.43 C525.96,271.00 527.10,271.12 526.00,271.90 C524.81,272.75 525.18,272.97 527.75,272.98 C531.37,273.00 531.87,274.38 529.29,277.23 C527.85,278.82 527.79,279.43 528.88,281.19 C529.60,282.33 530.37,284.33 530.61,285.63 C530.95,287.53 530.59,288.02 528.77,288.12 C526.91,288.22 527.04,288.38 529.50,289.00 L 532.50 289.76 L 529.24 289.88 C527.44,289.95 525.19,290.41 524.24,290.91 C523.28,291.41 520.40,292.56 517.83,293.46 C511.70,295.62 504.52,302.05 501.42,308.16 C499.92,311.11 498.54,316.24 497.94,321.05 C497.38,325.44 496.61,330.94 496.21,333.27 C495.82,335.59 495.55,338.85 495.63,340.50 C495.70,342.15 496.10,350.94 496.52,360.04 C497.38,378.37 497.08,379.76 491.69,383.05 ZM 525.66 495.50 C520.94,496.73 511.51,497.00 473.37,497.00 L 426.85 497.00 L 423.92 494.08 C421.63,491.78 421.00,490.26 421.00,487.00 C421.00,483.74 421.63,482.22 423.92,479.92 L 426.85 477.00 L 466.71 477.00 C499.45,477.00 507.54,477.27 512.03,478.53 C515.04,479.37 520.77,480.48 524.77,480.99 C528.77,481.49 532.49,482.18 533.04,482.52 C533.64,482.89 533.22,484.28 532.00,486.00 C529.66,489.29 529.70,489.31 538.34,490.49 C542.74,491.09 543.01,491.27 541.34,492.54 C540.33,493.31 537.68,493.95 535.46,493.97 C533.24,493.99 528.83,494.67 525.66,495.50 ZM 437.50 728.01 C445.96,732.51 458.82,728.36 463.29,719.69 C472.49,701.86 455.38,682.74 437.49,690.86 C433.91,692.49 427.07,698.93 426.96,700.78 C426.93,701.18 426.54,703.43 426.08,705.78 C424.33,714.88 428.66,723.32 437.50,728.01 ZM 592.02 726.19 C591.74,726.02 591.28,726.78 591.00,727.88 C590.56,729.63 589.90,729.27 585.60,724.91 C581.48,720.74 580.56,719.11 579.86,714.72 C579.41,711.85 579.32,708.60 579.66,707.50 C580.35,705.31 582.84,703.08 584.66,703.03 C586.77,702.97 597.00,709.40 597.00,710.78 C597.00,711.53 597.67,712.82 598.50,713.64 C599.33,714.47 600.00,715.97 600.00,716.99 C600.00,718.79 593.06,726.80 592.02,726.19 ZM 611.40 746.50 C608.88,748.41 607.23,748.30 602.75,745.93 C598.78,743.84 598.22,742.80 600.25,741.36 C602.47,739.78 610.11,741.22 612.08,743.60 C613.06,744.78 612.93,745.34 611.40,746.50 ZM 618.50 735.00 C617.67,736.35 616.74,736.26 614.50,734.62 C612.74,733.33 612.72,733.14 614.29,731.57 C616.66,729.20 626.33,729.72 626.81,732.25 C627.09,733.68 626.42,734.00 623.13,734.00 C620.92,734.00 618.84,734.45 618.50,735.00 Z" fill="rgb(50,162,167)"/>
<path d="M 592.02 726.19 C593.06,726.80 600.00,718.79 600.00,716.99 C600.00,715.97 599.33,714.47 598.50,713.64 C597.67,712.82 597.00,711.53 597.00,710.78 C597.00,709.40 586.77,702.97 584.66,703.03 C582.84,703.08 580.35,705.31 579.66,707.50 C579.51,708.00 579.44,708.94 579.45,710.08 C578.83,702.78 579.10,701.57 581.33,695.75 L 583.91 689.00 L 482.15 689.00 L 484.29 694.75 C484.79,696.08 485.18,697.35 485.49,698.68 C484.85,696.35 483.98,694.21 482.88,692.38 C481.85,690.67 481.00,688.99 481.00,688.65 C481.00,688.32 498.89,687.91 520.75,687.75 C554.04,687.51 561.80,687.18 568.50,685.72 C572.90,684.76 577.17,683.69 578.00,683.34 C578.83,682.98 580.36,682.80 581.42,682.94 C582.99,683.14 582.79,682.64 580.31,680.15 C577.73,677.58 577.31,676.44 577.47,672.56 L 577.66 668.00 L 683.63 668.00 L 686.31 670.80 C691.12,675.83 689.57,684.68 683.32,687.88 C682.06,688.52 675.98,689.00 669.07,689.00 C662.43,689.00 657.00,689.15 657.00,689.34 C657.00,689.53 657.94,692.34 659.09,695.59 C661.85,703.39 662.09,715.54 659.63,722.75 C657.25,729.71 650.28,739.02 644.42,743.06 C636.36,748.60 630.65,750.32 619.95,750.41 C610.87,750.50 610.03,750.32 602.95,746.81 C594.30,742.52 587.47,735.98 583.40,728.08 C581.49,724.37 580.63,721.27 579.95,715.25 C580.64,719.25 581.65,720.91 585.60,724.91 C589.90,729.27 590.56,729.63 591.00,727.88 C591.28,726.78 591.74,726.02 592.02,726.19 ZM 564.66 601.23 C566.70,599.94 555.09,600.58 471.93,606.40 C504.13,604.14 534.68,601.77 549.50,600.39 C552.25,600.14 563.72,599.28 575.00,598.48 C639.81,593.92 652.85,592.94 656.20,592.42 C661.08,591.66 668.57,586.60 671.60,582.03 C673.13,579.72 675.14,573.42 677.06,564.93 C681.23,546.51 695.00,478.08 695.00,475.80 C695.00,474.48 692.94,473.00 687.75,470.62 C685.42,469.54 683.19,468.39 681.07,467.15 C695.47,475.40 713.09,478.29 729.29,474.48 C727.06,475.05 724.80,475.47 722.54,475.76 L 716.64 476.50 L 715.40 482.50 C710.28,507.20 706.39,526.38 701.50,550.93 C694.21,587.50 693.17,590.31 682.98,600.61 C674.20,609.49 664.72,613.23 648.00,614.43 C632.47,615.54 602.30,617.75 568.27,620.25 C580.48,619.10 583.82,618.14 581.82,616.87 C580.87,616.26 581.09,616.03 582.60,616.02 C585.26,616.00 588.63,612.51 586.98,611.49 C586.34,611.09 586.03,609.97 586.29,609.00 C586.55,608.02 586.45,606.74 586.09,606.14 C585.29,604.85 572.37,602.01 567.18,601.98 C565.16,601.98 564.02,601.64 564.66,601.23 ZM 739.26 470.98 C741.84,469.55 744.30,467.52 748.04,463.96 C752.07,460.12 755.65,457.43 755.99,457.98 C756.67,459.09 765.11,450.79 766.96,447.18 C768.48,444.20 766.31,440.55 762.44,439.57 C760.96,439.20 759.07,438.22 758.24,437.38 C757.27,436.41 755.82,436.08 754.27,436.47 C752.45,436.93 752.02,436.75 752.59,435.79 C752.95,435.19 750.97,437.00 748.00,439.97 C748.00,439.95 748.00,439.93 748.00,439.91 C748.00,439.40 749.36,437.10 751.03,434.80 C755.95,428.01 758.31,418.55 757.83,407.55 C757.46,399.27 757.01,397.40 753.74,390.79 C744.42,371.92 723.62,361.56 704.11,366.06 C693.03,368.62 680.72,377.78 675.18,387.39 C675.30,387.16 675.41,386.93 675.53,386.70 C677.42,382.96 678.53,380.17 677.98,380.51 C677.01,381.11 676.54,379.15 676.84,375.69 C676.93,374.70 676.59,374.14 676.09,374.44 C675.59,374.75 675.41,374.17 675.67,373.14 C676.07,371.62 675.37,371.13 671.83,370.45 C669.45,370.00 666.69,369.71 665.69,369.81 C664.54,369.93 664.11,369.54 664.51,368.75 C664.86,368.06 663.50,369.30 661.49,371.50 C659.04,374.18 656.19,378.98 653.92,383.92 C654.40,382.82 654.93,381.66 655.51,380.44 C667.02,356.14 694.88,341.23 721.98,344.88 C744.38,347.89 762.77,361.19 772.45,381.37 C777.66,392.23 779.00,398.08 779.00,410.00 C779.00,421.80 777.67,427.65 772.45,438.79 C769.23,445.64 766.43,449.82 761.79,454.69 C755.01,461.81 747.35,467.32 739.26,470.98 ZM 495.00 435.08 C492.06,434.67 496.90,434.18 508.96,433.66 C525.85,432.92 534.00,431.56 534.00,429.47 C534.00,429.13 532.25,427.17 530.12,425.12 C526.13,421.28 520.57,419.00 515.22,419.00 C513.54,419.00 511.98,418.44 511.75,417.75 C511.42,416.77 498.39,416.50 451.08,416.50 L 390.84 416.50 L 412.17 415.78 C423.90,415.38 481.71,415.30 540.64,415.59 L 647.78 416.13 L 648.44 407.81 C648.48,407.23 648.53,406.67 648.58,406.12 C648.11,412.45 648.21,418.77 648.97,422.59 C650.43,429.90 656.62,442.80 662.23,450.56 C660.26,447.98 658.45,445.21 656.77,442.25 L 653.81 437.00 L 392.42 437.00 L 391.23 436.00 L 445.31 435.85 C475.11,435.77 497.48,435.42 495.00,435.08 ZM 525.66 495.50 C528.83,494.67 533.24,493.99 535.46,493.97 C537.68,493.95 540.33,493.31 541.34,492.54 C543.01,491.27 542.74,491.09 538.34,490.49 C529.70,489.31 529.66,489.29 532.00,486.00 C533.22,484.28 533.64,482.89 533.04,482.52 C532.49,482.18 528.77,481.49 524.77,480.99 C520.77,480.48 515.04,479.37 512.03,478.53 C507.54,477.27 499.45,477.00 466.71,477.00 L 428.50 477.00 C431.20,476.17 460.95,476.01 539.59,476.37 L 647.26 476.88 L 650.13 479.62 C652.48,481.88 653.00,483.21 653.00,487.00 C653.00,490.83 652.49,492.12 650.01,494.49 L 647.02 497.35 L 538.26 497.75 C449.28,498.07 433.07,498.12 428.34,497.00 L 473.37 497.00 C511.51,497.00 520.94,496.73 525.66,495.50 ZM 518.96 293.06 C521.19,292.24 523.42,291.34 524.24,290.91 C525.19,290.41 527.44,289.95 529.24,289.88 L 532.50 289.76 L 529.50 289.00 C527.04,288.38 526.91,288.22 528.77,288.12 C530.59,288.02 530.95,287.53 530.61,285.63 C530.37,284.33 529.60,282.33 528.88,281.19 C527.79,279.43 527.85,278.82 529.29,277.23 C531.87,274.38 531.37,273.00 527.75,272.98 C525.18,272.97 524.81,272.75 526.00,271.90 C527.10,271.12 525.96,271.00 521.73,271.43 C516.24,271.99 509.28,274.38 503.55,277.51 C507.86,274.84 512.31,272.99 516.56,272.30 C518.48,271.99 520.29,271.34 520.58,270.87 C521.47,269.44 536.16,269.89 542.51,271.54 C558.53,275.72 570.79,285.65 577.97,300.29 C583.16,310.86 583.84,316.38 583.55,345.50 C583.22,379.06 583.36,377.42 580.41,380.92 C578.25,383.49 577.10,384.00 573.47,384.00 C570.35,384.00 568.34,383.34 566.41,381.68 C562.74,378.52 562.07,372.70 562.58,348.42 C563.26,316.29 561.47,308.20 551.71,299.43 C544.94,293.34 537.41,290.68 528.50,291.24 C525.09,291.45 521.89,292.07 518.96,293.06 ZM 615.12 729.02 C621.24,730.50 629.48,728.41 634.36,724.13 C637.85,721.06 640.00,715.36 640.00,709.15 C640.00,704.12 639.51,702.50 636.75,698.42 C628.59,686.35 613.06,685.85 604.07,697.36 C595.47,708.35 601.54,725.73 615.12,729.02 ZM 611.40 746.50 C612.93,745.34 613.06,744.78 612.08,743.60 C610.11,741.22 602.47,739.78 600.25,741.36 C598.22,742.80 598.78,743.84 602.75,745.93 C607.23,748.30 608.88,748.41 611.40,746.50 ZM 618.50 735.00 C618.84,734.45 620.92,734.00 623.13,734.00 C626.42,734.00 627.09,733.68 626.81,732.25 C626.33,729.72 616.66,729.20 614.29,731.57 C612.72,733.14 612.74,733.33 614.50,734.62 C616.74,736.26 617.67,736.35 618.50,735.00 ZM 496.86 368.78 C496.81,366.39 496.69,363.52 496.52,360.04 C496.10,350.94 495.70,342.15 495.63,340.50 C495.55,338.85 495.82,335.59 496.21,333.27 C496.61,330.94 497.38,325.44 497.94,321.05 C498.01,320.45 498.10,319.84 498.20,319.24 C498.15,319.58 498.10,319.92 498.06,320.27 C497.57,324.25 497.14,338.65 497.10,352.28 C497.08,358.90 497.00,364.46 496.86,368.78 ZM 392.28 665.51 C396.92,667.66 410.86,667.97 475.70,668.00 L 473.23 668.00 C409.48,668.01 396.94,668.01 392.28,665.51 ZM 669.12 412.45 C669.63,423.75 674.58,434.45 683.72,443.13 C674.34,434.22 669.45,423.81 669.12,412.45 ZM 486.35 716.02 C486.11,719.77 485.43,721.79 483.72,725.43 C482.36,728.34 480.78,731.03 479.00,733.47 C480.76,731.04 482.31,728.39 483.62,725.52 C484.93,722.66 485.84,719.41 486.35,716.02 ZM 399.15 633.12 C395.10,633.97 391.81,635.51 389.34,637.68 C390.34,636.73 391.47,635.90 392.70,635.22 C394.49,634.23 396.22,633.61 399.15,633.12 ZM 499.23 314.34 C499.86,311.91 500.63,309.73 501.42,308.16 C502.05,306.92 502.84,305.68 503.75,304.45 C501.78,307.34 500.25,310.66 499.23,314.34 ZM 421.70 491.13 C422.15,492.11 422.86,493.01 423.92,494.08 L 425.26 495.42 C423.48,494.13 422.35,492.79 421.70,491.13 ZM 728.66 453.45 C727.46,453.82 726.17,454.16 724.78,454.49 C721.17,455.34 718.20,455.81 715.36,455.89 C719.07,455.71 724.33,454.71 728.66,453.45 ZM 478.06 311.24 C478.98,307.13 480.72,302.93 483.04,298.90 C480.71,303.05 478.96,307.30 478.06,311.24 ZM 425.00 478.85 L 423.92 479.92 C423.46,480.38 423.07,480.81 422.74,481.23 C423.35,480.34 424.11,479.54 425.00,478.85 ZM 495.45 379.82 C495.77,379.31 496.02,378.74 496.22,378.07 C496.14,378.57 496.05,378.91 495.95,379.08 C495.84,379.31 495.66,379.55 495.45,379.82 ZM 712.44 455.84 C710.88,455.74 709.31,455.52 707.62,455.19 C709.29,455.49 711.02,455.72 712.44,455.84 ZM 477.54 316.89 C477.21,323.38 476.98,334.47 476.97,346.62 C476.98,334.22 477.20,323.32 477.54,316.89 ZM 386.53 431.29 C385.89,430.19 385.53,428.95 385.32,427.39 C385.10,425.76 385.05,424.66 385.32,423.68 C385.06,424.66 385.11,425.76 385.33,427.39 C385.52,428.87 385.93,430.17 386.53,431.29 ZM 740.30 447.25 C739.42,447.97 738.55,448.62 737.69,449.21 C738.53,448.61 739.41,447.95 740.30,447.25 ZM 515.84 294.29 C516.49,293.98 517.14,293.71 517.78,293.48 C517.12,293.73 516.47,294.00 515.84,294.29 ZM 421.02 486.13 C421.01,486.36 421.00,486.60 421.00,486.84 C421.00,486.80 421.00,486.75 421.00,486.70 C421.00,486.51 421.01,486.32 421.02,486.13 Z" fill="rgb(97,189,177)"/>
<path d="M 632.25 555.04 L 629.50 558.10 L 539.50 558.48 C490.00,558.69 448.30,558.64 446.83,558.37 C443.15,557.70 439.18,553.46 438.41,549.38 C437.65,545.31 439.62,541.82 444.30,538.95 C447.42,537.04 449.68,537.00 538.18,537.24 L 628.87 537.50 L 631.93 540.44 C636.13,544.45 636.26,550.57 632.25,555.04 ZM 478.06 311.24 L 478.03 311.36 C477.85,312.15 477.69,314.09 477.54,316.89 L 477.54 316.90 C477.51,317.58 477.47,318.31 477.44,319.08 C477.16,325.72 476.98,335.75 476.97,346.62 C476.96,359.14 476.96,367.07 477.28,372.23 C477.17,370.77 477.08,369.11 477.00,367.21 L 476.50 355.62 L 465.50 355.89 C459.45,356.04 454.00,356.59 453.38,357.10 C452.00,358.24 451.58,361.44 448.98,390.00 C447.85,402.38 446.74,413.06 446.50,413.74 C446.16,414.71 455.03,415.03 487.29,415.24 C503.65,415.34 527.77,415.50 548.67,415.63 L 540.64 415.59 C491.64,415.35 443.41,415.37 421.80,415.61 L 425.47 415.50 L 426.72 403.00 C432.25,347.66 432.28,347.47 439.62,341.03 C445.95,335.47 449.04,334.65 463.75,334.59 L 477.00 334.53 L 477.02 325.02 C477.04,319.78 477.52,313.48 478.09,311.00 C479.10,306.59 481.06,302.09 483.68,297.79 C483.46,298.16 483.25,298.53 483.04,298.90 C480.72,302.93 478.98,307.13 478.06,311.24 ZM 647.79 416.00 L 647.78 416.13 L 599.16 415.89 C612.15,415.82 613.00,415.41 613.00,414.23 C613.00,408.23 607.72,359.35 606.91,357.83 C605.90,355.95 604.91,355.81 590.25,355.49 L 584.00 355.35 L 583.92 361.42 C583.84,366.69 583.57,370.84 583.00,374.06 C583.34,369.74 583.39,361.74 583.55,345.50 C583.84,316.38 583.16,310.86 577.97,300.29 C575.53,295.32 572.52,290.90 568.96,287.06 C572.22,290.51 575.01,294.39 577.23,298.62 C581.72,307.17 582.90,311.83 583.80,324.50 L 584.50 334.50 L 597.00 334.83 C611.37,335.21 617.02,336.98 622.01,342.66 C627.63,349.06 627.72,349.50 631.46,388.00 C632.24,395.98 633.19,405.54 633.58,409.25 L 634.28 416.00 ZM 711.90 433.55 C708.80,435.16 706.50,435.29 703.50,434.04 C700.62,432.84 684.41,415.92 683.56,413.23 C682.57,410.06 684.65,404.46 687.52,402.58 C688.84,401.71 691.76,401.00 693.99,401.00 C697.34,401.00 698.81,401.70 702.46,405.07 C704.50,406.95 705.76,408.12 707.13,408.24 C709.36,408.45 711.85,405.82 718.45,398.87 L 718.49 398.82 C727.40,389.44 730.52,387.02 733.70,387.01 C741.27,386.98 746.32,395.22 742.71,401.67 C740.67,405.33 714.88,432.01 711.90,433.55 ZM 496.86 368.78 C497.00,364.46 497.08,358.90 497.10,352.28 C497.12,345.74 497.23,339.02 497.39,333.36 C498.53,334.27 505.93,334.56 529.92,334.72 C557.63,334.92 562.16,334.74 562.65,333.46 C562.66,333.44 562.67,333.41 562.68,333.39 C562.75,337.73 562.70,342.69 562.58,348.42 C562.53,350.98 562.49,353.33 562.46,355.50 L 497.50 355.50 L 497.00 367.10 C496.96,368.04 496.92,368.92 496.88,369.74 C496.87,369.43 496.87,369.11 496.86,368.78 ZM 562.46 356.04 C562.30,370.91 562.88,376.82 564.94,380.00 C563.39,378.09 563.06,376.19 562.62,369.93 C562.29,365.29 562.13,360.15 562.26,358.50 ZM 557.94 306.80 C554.38,301.04 547.61,295.37 541.20,292.96 C541.01,292.88 540.82,292.82 540.64,292.75 C544.58,294.10 548.25,296.31 551.71,299.43 C554.32,301.78 556.36,304.07 557.94,306.80 ZM 499.23 314.34 C499.50,313.36 499.81,312.41 500.15,311.48 C499.32,314.22 498.53,317.86 497.94,321.40 C497.98,320.96 498.02,320.58 498.06,320.27 C498.10,319.92 498.15,319.58 498.20,319.24 C498.47,317.57 498.82,315.90 499.23,314.34 ZM 561.86 319.84 C561.28,316.40 560.53,313.04 559.75,310.66 C560.71,313.22 561.39,316.20 561.86,319.84 ZM 518.96 293.06 C519.39,292.91 519.82,292.78 520.26,292.65 C517.03,293.68 513.95,295.20 511.18,297.13 C512.71,296.00 514.29,295.03 515.84,294.29 C516.47,294.00 517.12,293.73 517.78,293.48 L 517.83 293.46 C518.20,293.33 518.58,293.20 518.96,293.06 ZM 491.69 383.05 C492.78,382.38 493.67,381.79 494.38,381.12 C493.53,382.08 492.37,382.79 490.76,383.62 C490.68,383.67 490.59,383.71 490.51,383.75 C490.87,383.55 491.25,383.31 491.69,383.05 ZM 567.65 382.60 C569.21,383.57 570.95,383.99 573.35,384.00 C573.32,384.00 573.28,384.00 573.25,384.00 C570.65,384.00 569.16,383.68 567.65,382.60 ZM 480.73 382.25 C481.45,382.72 482.30,383.10 483.33,383.54 C483.55,383.64 483.77,383.73 483.98,383.82 C482.64,383.36 481.58,382.88 480.73,382.25 ZM 578.93 382.49 C579.40,382.08 579.87,381.56 580.41,380.92 C580.55,380.75 580.69,380.59 580.82,380.44 C580.28,381.29 579.65,381.96 578.93,382.49 ZM 390.83 416.50 L 390.84 416.50 L 387.81 419.89 C387.04,420.74 386.48,421.43 386.07,422.06 C386.48,421.43 387.04,420.74 387.80,419.89 Z" fill="rgb(240,149,77)"/>
<path d="M 0.00 508.50 L 0.00 0.00 L 515.50 0.00 L 1031.00 0.00 L 1031.00 508.50 L 1031.00 1017.00 L 515.50 1017.00 L 0.00 1017.00 L 0.00 508.50 ZM 457.14 749.02 C469.11,745.31 478.19,737.25 483.72,725.43 C486.16,720.23 486.50,718.33 486.47,710.00 C486.44,702.80 485.92,699.10 484.29,694.75 L 482.15 689.00 L 533.03 689.00 L 583.91 689.00 L 581.33 695.75 C578.87,702.18 578.79,702.98 579.68,712.58 C580.41,720.42 581.23,723.86 583.40,728.08 C587.47,735.98 594.30,742.52 602.95,746.81 C610.03,750.32 610.87,750.50 619.95,750.41 C630.65,750.32 636.36,748.60 644.42,743.06 C650.28,739.02 657.25,729.71 659.63,722.75 C662.09,715.54 661.85,703.39 659.09,695.59 C657.94,692.34 657.00,689.53 657.00,689.34 C657.00,689.15 662.43,689.00 669.07,689.00 C675.98,689.00 682.06,688.52 683.32,687.88 C689.57,684.68 691.12,675.83 686.31,670.80 L 683.63 668.00 L 540.26 668.00 C384.06,668.00 394.47,668.39 388.87,662.34 C385.00,658.15 384.00,655.68 384.02,650.32 C384.05,639.90 391.08,633.49 403.57,632.49 C419.55,631.21 600.97,617.80 648.00,614.43 C664.72,613.23 674.20,609.49 682.98,600.61 C693.17,590.31 694.21,587.50 701.50,550.93 C706.39,526.38 710.28,507.20 715.40,482.50 L 716.64 476.50 L 722.54 475.76 C736.68,473.98 750.46,466.59 761.79,454.69 C766.43,449.82 769.23,445.64 772.45,438.79 C777.67,427.65 779.00,421.80 779.00,410.00 C779.00,398.08 777.66,392.23 772.45,381.37 C762.77,361.19 744.38,347.89 721.98,344.88 C694.88,341.23 667.02,356.14 655.51,380.44 C650.72,390.55 649.39,395.69 648.44,407.75 L 647.79 416.00 L 641.03 416.00 L 634.28 416.00 L 633.58 409.25 C633.19,405.54 632.24,395.98 631.46,388.00 C627.72,349.50 627.63,349.06 622.01,342.66 C617.02,336.98 611.37,335.21 597.00,334.83 L 584.50 334.50 L 583.80 324.50 C582.90,311.83 581.72,307.17 577.23,298.62 C570.23,285.30 557.65,275.49 542.51,271.54 C536.16,269.89 521.47,269.44 520.58,270.87 C520.29,271.34 518.48,271.99 516.56,272.30 C500.74,274.86 482.09,293.63 478.09,311.00 C477.52,313.48 477.04,319.78 477.02,325.02 L 477.00 334.53 L 463.75 334.59 C449.04,334.65 445.95,335.47 439.62,341.03 C432.28,347.47 432.25,347.66 426.72,403.00 L 425.47 415.50 L 408.15 416.00 L 390.83 416.50 L 387.80 419.89 C385.18,422.83 384.85,423.83 385.32,427.39 C385.72,430.43 386.72,432.22 389.14,434.25 L 392.42 437.00 L 523.12 437.00 L 653.81 437.00 L 656.77 442.25 C664.09,455.19 674.05,464.31 687.75,470.62 C692.94,473.00 695.00,474.48 695.00,475.80 C695.00,478.08 681.23,546.51 677.06,564.93 C675.14,573.42 673.13,579.72 671.60,582.03 C668.57,586.60 661.08,591.66 656.20,592.42 C652.85,592.94 639.81,593.92 575.00,598.48 C563.72,599.28 552.25,600.14 549.50,600.39 C534.46,601.79 503.22,604.21 470.50,606.50 C412.43,610.56 411.87,610.59 411.50,610.00 C411.16,609.44 402.67,577.63 382.95,503.00 C377.36,481.83 371.23,458.65 369.32,451.50 C367.42,444.35 363.44,429.27 360.48,418.00 C357.51,406.73 352.85,389.02 350.11,378.65 C347.37,368.28 343.91,357.37 342.41,354.40 C338.84,347.36 328.66,337.62 321.58,334.49 C313.32,330.84 305.19,329.94 282.26,330.15 C260.31,330.35 257.63,330.84 254.56,335.22 C251.87,339.06 252.57,343.77 256.40,347.60 L 259.80 351.00 L 281.68 351.00 C305.90,351.00 311.28,351.82 317.36,356.46 C323.03,360.79 325.47,366.00 330.01,383.50 C332.30,392.30 337.00,410.08 340.46,423.00 C343.93,435.92 349.07,455.27 351.89,466.00 C365.93,519.39 378.40,566.59 383.44,585.42 C391.48,615.49 391.47,612.82 383.54,616.87 C375.78,620.84 370.94,626.03 366.63,635.00 C363.83,640.81 363.50,642.47 363.50,650.55 C363.50,659.01 363.75,660.11 367.28,667.25 C374.28,681.42 387.26,689.00 404.49,689.00 L 409.89 689.00 L 407.69 693.75 C405.84,697.77 405.50,700.27 405.50,710.00 C405.50,721.18 405.59,721.67 408.90,727.77 C418.79,746.01 438.67,754.77 457.14,749.02 ZM 632.25 555.04 C636.26,550.57 636.13,544.45 631.93,540.44 L 628.87 537.50 L 538.18 537.24 C449.68,537.00 447.42,537.04 444.30,538.95 C439.62,541.82 437.65,545.31 438.41,549.38 C439.18,553.46 443.15,557.70 446.83,558.37 C448.30,558.64 490.00,558.69 539.50,558.48 L 629.50 558.10 L 632.25 555.04 ZM 650.01 494.49 C652.49,492.12 653.00,490.83 653.00,487.00 C653.00,483.21 652.48,481.88 650.13,479.62 L 647.26 476.88 L 539.59 476.37 C460.68,476.01 431.00,476.18 428.47,477.01 C424.00,478.48 421.00,482.38 421.00,486.70 C421.00,491.17 422.40,493.64 426.31,496.13 C429.47,498.13 430.51,498.14 538.26,497.75 L 647.02 497.35 L 650.01 494.49 ZM 437.50 728.01 C428.66,723.32 424.33,714.88 426.08,705.78 C426.54,703.43 426.93,701.18 426.96,700.78 C427.07,698.93 433.91,692.49 437.49,690.86 C455.38,682.74 472.49,701.86 463.29,719.69 C458.82,728.36 445.96,732.51 437.50,728.01 ZM 615.12 729.02 C601.54,725.73 595.47,708.35 604.07,697.36 C613.06,685.85 628.59,686.35 636.75,698.42 C639.51,702.50 640.00,704.12 640.00,709.15 C640.00,715.36 637.85,721.06 634.36,724.13 C629.48,728.41 621.24,730.50 615.12,729.02 ZM 704.00 454.40 C695.43,452.10 689.99,449.08 683.72,443.13 C668.37,428.55 664.84,408.29 674.30,389.04 C679.31,378.85 692.40,368.76 704.11,366.06 C723.62,361.56 744.42,371.92 753.74,390.79 C757.01,397.40 757.46,399.27 757.83,407.55 C758.31,418.55 755.95,428.01 751.03,434.80 C749.36,437.10 748.00,439.40 748.00,439.91 C748.00,441.20 738.22,449.38 734.30,451.37 C729.85,453.64 719.38,455.98 714.00,455.92 C711.53,455.89 707.03,455.21 704.00,454.40 ZM 711.90 433.55 C714.88,432.01 740.67,405.33 742.71,401.67 C746.32,395.22 741.27,386.98 733.70,387.01 C730.52,387.02 727.40,389.44 718.49,398.82 C707.84,410.05 707.86,410.04 702.46,405.07 C698.81,401.70 697.34,401.00 693.99,401.00 C691.76,401.00 688.84,401.71 687.52,402.58 C684.65,404.46 682.57,410.06 683.56,413.23 C684.41,415.92 700.62,432.84 703.50,434.04 C706.50,435.29 708.80,435.16 711.90,433.55 ZM 487.29 415.24 C455.03,415.03 446.16,414.71 446.50,413.74 C446.74,413.06 447.85,402.38 448.98,390.00 C451.58,361.44 452.00,358.24 453.38,357.10 C454.00,356.59 459.45,356.04 465.50,355.89 L 476.50 355.62 L 477.00 367.21 C477.56,380.08 478.41,381.99 484.56,384.02 C487.18,384.89 488.48,384.80 490.76,383.62 C495.92,380.95 496.46,379.52 497.00,367.10 L 497.50 355.50 L 530.00 355.50 L 562.50 355.50 L 562.26 358.50 C562.13,360.15 562.29,365.29 562.62,369.93 C563.15,377.44 563.52,378.67 566.03,381.18 C568.27,383.42 569.75,384.00 573.25,384.00 C581.23,384.00 583.67,378.83 583.92,361.42 L 584.00 355.35 L 590.25 355.49 C604.91,355.81 605.90,355.95 606.91,357.83 C607.72,359.35 613.00,408.23 613.00,414.23 C613.00,415.98 611.13,416.05 570.75,415.78 C547.51,415.63 509.95,415.38 487.29,415.24 ZM 497.24 333.18 C496.08,330.17 498.89,313.16 501.35,308.30 C508.42,294.34 526.46,287.39 541.20,292.96 C548.26,295.62 555.76,302.22 558.92,308.54 C561.33,313.38 563.87,330.29 562.65,333.46 C562.16,334.74 557.63,334.92 529.92,334.72 C504.38,334.55 497.65,334.23 497.24,333.18 Z" fill="rgb(244,248,251)"/>
</g>
</svg>